<svg xmlns="http://www.w3.org/2000/svg" viewBox="-40 -40 80 80" fill="none">
  

  <g stroke="rgba(255,255,255,0.42)" stroke-width="1" stroke-linecap="round" fill="none">
    <line x1="0" y1="-32" x2="28" y2="-16"></line>
    <line x1="28" y1="-16" x2="28" y2="16"></line>
    <line x1="28" y1="16" x2="0" y2="32"></line>
    <line x1="0" y1="32" x2="-28" y2="16"></line>
    <line x1="-28" y1="16" x2="-28" y2="-16"></line>
    <line x1="-28" y1="-16" x2="0" y2="-32"></line>
  </g>
  <g stroke="#2BD4F4" stroke-width="1.3" stroke-linecap="round" fill="none" opacity="0.9">
    <line x1="0" y1="0" x2="0" y2="-32"></line>
    <line x1="0" y1="0" x2="28" y2="-16"></line>
    <line x1="0" y1="0" x2="28" y2="16"></line>
    <line x1="0" y1="0" x2="0" y2="32"></line>
    <line x1="0" y1="0" x2="-28" y2="16"></line>
    <line x1="0" y1="0" x2="-28" y2="-16"></line>
  </g>
  <g fill="#FFFFFF">
    <circle cx="0" cy="-32" r="3.6"></circle>
    <circle cx="28" cy="-16" r="3.6"></circle>
    <circle cx="28" cy="16" r="3.6"></circle>
    <circle cx="0" cy="32" r="3.6"></circle>
    <circle cx="-28" cy="16" r="3.6"></circle>
    <circle cx="-28" cy="-16" r="3.6"></circle>
  </g>
  <circle cx="0" cy="0" r="13" fill="none" stroke="#2BD4F4" stroke-width="1" opacity="0.25"></circle>
  <circle cx="0" cy="0" r="9" fill="#2BD4F4"></circle>
</svg>