<svg xmlns="http://www.w3.org/2000/svg" viewBox="0 0 320 80" fill="none">
  

  
  <g transform="translate(40, 40)">
    
    <g stroke="#0A1438" stroke-width="1" stroke-linecap="round" fill="none" opacity="0.5">
      <line x1="0" y1="-26" x2="22.5" y2="-13"></line>
      <line x1="22.5" y1="-13" x2="22.5" y2="13"></line>
      <line x1="22.5" y1="13" x2="0" y2="26"></line>
      <line x1="0" y1="26" x2="-22.5" y2="13"></line>
      <line x1="-22.5" y1="13" x2="-22.5" y2="-13"></line>
      <line x1="-22.5" y1="-13" x2="0" y2="-26"></line>
    </g>
    
    <g stroke="#2547FF" stroke-width="1.2" stroke-linecap="round" fill="none">
      <line x1="0" y1="0" x2="0" y2="-26"></line>
      <line x1="0" y1="0" x2="22.5" y2="-13"></line>
      <line x1="0" y1="0" x2="22.5" y2="13"></line>
      <line x1="0" y1="0" x2="0" y2="26"></line>
      <line x1="0" y1="0" x2="-22.5" y2="13"></line>
      <line x1="0" y1="0" x2="-22.5" y2="-13"></line>
    </g>
    
    <g fill="#0A1438">
      <circle cx="0" cy="-26" r="2.9"></circle>
      <circle cx="22.5" cy="-13" r="2.9"></circle>
      <circle cx="22.5" cy="13" r="2.9"></circle>
      <circle cx="0" cy="26" r="2.9"></circle>
      <circle cx="-22.5" cy="13" r="2.9"></circle>
      <circle cx="-22.5" cy="-13" r="2.9"></circle>
    </g>
    
    <circle cx="0" cy="0" r="10.5" fill="none" stroke="#2547FF" stroke-width="0.9" opacity="0.22"></circle>
    <circle cx="0" cy="0" r="7.2" fill="#2547FF"></circle>
  </g>

  
  <text x="92" y="51" font-family="&#39;Inter Tight&#39;, &#39;Inter&#39;, system-ui, sans-serif" font-size="36" font-weight="300" letter-spacing="-0.75">
    <tspan fill="#2547FF">AI</tspan><tspan fill="#0A1438">TECHUB</tspan>
  </text>
</svg>